<svg width="516" height="119" viewBox="0 0 516 119" fill="none" xmlns="http://www.w3.org/2000/svg">
<g clip-path="url(#clip0_1_10)">
<mask id="mask0_1_10" style="mask-type:luminance" maskUnits="userSpaceOnUse" x="22" y="22" width="74" height="75">
<path d="M95.7191 22.3125H22.089V96.6875H95.7191V22.3125Z" fill="white"/>
</mask>
<g mask="url(#mask0_1_10)">
<path d="M58.8989 22.1737C52.3935 22.1658 46.0016 23.8949 40.3708 27.1858C34.74 30.4767 30.0703 35.2124 26.8349 40.9133C23.5994 46.6141 21.9131 53.0775 21.9468 59.6486C21.9805 66.2197 23.7331 72.6651 27.0269 78.3317L22.0814 93.3208C21.9337 93.7684 21.9064 94.2476 22.0021 94.7093C22.0978 95.1711 22.3132 95.599 22.6261 95.9491C22.9391 96.2993 23.3385 96.5593 23.7836 96.7026C24.2286 96.8458 24.7033 96.8671 25.1591 96.7644L42.3984 92.8969C47.3853 95.4113 52.8706 96.7537 58.4438 96.8235C64.017 96.8933 69.5337 95.6887 74.5807 93.2999C79.6278 90.9111 84.0745 87.4 87.5879 83.0294C91.1014 78.6588 93.5905 73.5421 94.869 68.0622C96.1476 62.5823 96.1823 56.8812 94.9707 51.3859C93.7591 45.8905 91.3325 40.7431 87.8726 36.3292C84.4127 31.9153 80.0091 28.3491 74.9916 25.8977C69.974 23.4463 64.4725 22.1732 58.8989 22.1737ZM74.209 55.7689L66.2913 66.4293C66.0651 66.736 65.7762 66.99 65.4442 67.174C65.1122 67.3579 64.7448 67.4675 64.3671 67.4953C63.99 67.5184 63.6123 67.4612 63.2585 67.3275C62.9046 67.1939 62.5825 66.9867 62.3129 66.7193L53.9068 58.2331L47.8151 66.4342C47.8151 66.4342 45.2871 67.8498 44.1189 66.9673C43.8413 66.7572 43.6075 66.494 43.4308 66.1927C43.254 65.8913 43.1378 65.5577 43.0888 65.2109C43.0398 64.8642 43.0589 64.511 43.1451 64.1718C43.2313 63.8325 43.3829 63.5137 43.5912 63.2336L51.5089 52.5732C51.7351 52.2664 52.024 52.0125 52.356 51.8285C52.6881 51.6446 53.0554 51.535 53.4331 51.5072C53.8103 51.4824 54.1885 51.5387 54.5426 51.6725C54.8968 51.8063 55.2187 52.0144 55.4874 52.2831L63.8935 60.7743L69.9851 52.5732C70.1932 52.2931 70.4538 52.057 70.7522 51.8786C71.0505 51.7002 71.3807 51.5829 71.7239 51.5334C72.0672 51.4839 72.4167 51.5032 72.7525 51.5902C73.0884 51.6771 73.404 51.83 73.6813 52.0402C73.9587 52.2503 74.1923 52.5136 74.369 52.815C74.5456 53.1164 74.6617 53.4499 74.7107 53.7966C74.7597 54.1433 74.7406 54.4964 74.6545 54.8356C74.5685 55.1749 74.4171 55.4937 74.209 55.7738V55.7689Z" fill="#9068FE"/>
</g>
</g>
<path d="M133.2 74V46H144.12C146.573 46 148.667 46.3867 150.4 47.16C152.133 47.9333 153.467 49.0533 154.4 50.52C155.333 51.9867 155.8 53.7333 155.8 55.76C155.8 57.7867 155.333 59.5333 154.4 61C153.467 62.44 152.133 63.56 150.4 64.36C148.667 65.1333 146.573 65.52 144.12 65.52H135.4L137.2 63.64V74H133.2ZM137.2 64.04L135.4 62.04H144C146.56 62.04 148.493 61.4933 149.8 60.4C151.133 59.3067 151.8 57.76 151.8 55.76C151.8 53.76 151.133 52.2133 149.8 51.12C148.493 50.0267 146.56 49.48 144 49.48H135.4L137.2 47.48V64.04ZM170.118 74.24C167.985 74.24 166.092 73.7733 164.438 72.84C162.785 71.9067 161.478 70.6267 160.518 69C159.558 67.3467 159.078 65.48 159.078 63.4C159.078 61.2933 159.558 59.4267 160.518 57.8C161.478 56.1733 162.785 54.9067 164.438 54C166.092 53.0667 167.985 52.6 170.118 52.6C172.225 52.6 174.105 53.0667 175.758 54C177.438 54.9067 178.745 56.1733 179.678 57.8C180.638 59.4 181.118 61.2667 181.118 63.4C181.118 65.5067 180.638 67.3733 179.678 69C178.745 70.6267 177.438 71.9067 175.758 72.84C174.105 73.7733 172.225 74.24 170.118 74.24ZM170.118 70.88C171.478 70.88 172.692 70.5733 173.758 69.96C174.852 69.3467 175.705 68.48 176.318 67.36C176.932 66.2133 177.238 64.8933 177.238 63.4C177.238 61.88 176.932 60.5733 176.318 59.48C175.705 58.36 174.852 57.4933 173.758 56.88C172.692 56.2667 171.478 55.96 170.118 55.96C168.758 55.96 167.545 56.2667 166.478 56.88C165.412 57.4933 164.558 58.36 163.918 59.48C163.278 60.5733 162.958 61.88 162.958 63.4C162.958 64.8933 163.278 66.2133 163.918 67.36C164.558 68.48 165.412 69.3467 166.478 69.96C167.545 70.5733 168.758 70.88 170.118 70.88ZM190.323 74L182.443 52.8H186.083L193.083 72H191.363L198.643 52.8H201.883L209.003 72H207.323L214.483 52.8H217.923L210.003 74H206.323L199.643 56.48H200.763L194.003 74H190.323ZM230.674 74.24C228.407 74.24 226.407 73.7733 224.674 72.84C222.967 71.9067 221.634 70.6267 220.674 69C219.74 67.3733 219.274 65.5067 219.274 63.4C219.274 61.2933 219.727 59.4267 220.634 57.8C221.567 56.1733 222.834 54.9067 224.434 54C226.06 53.0667 227.887 52.6 229.914 52.6C231.967 52.6 233.78 53.0533 235.354 53.96C236.927 54.8667 238.154 56.1467 239.034 57.8C239.94 59.4267 240.394 61.3333 240.394 63.52C240.394 63.68 240.38 63.8667 240.354 64.08C240.354 64.2933 240.34 64.4933 240.314 64.68H222.274V61.92H238.314L236.754 62.88C236.78 61.52 236.5 60.3067 235.914 59.24C235.327 58.1733 234.514 57.3467 233.474 56.76C232.46 56.1467 231.274 55.84 229.914 55.84C228.58 55.84 227.394 56.1467 226.354 56.76C225.314 57.3467 224.5 58.1867 223.914 59.28C223.327 60.3467 223.034 61.5733 223.034 62.96V63.6C223.034 65.0133 223.354 66.28 223.994 67.4C224.66 68.4933 225.58 69.3467 226.754 69.96C227.927 70.5733 229.274 70.88 230.794 70.88C232.047 70.88 233.18 70.6667 234.194 70.24C235.234 69.8133 236.14 69.1733 236.914 68.32L239.034 70.8C238.074 71.92 236.874 72.7733 235.434 73.36C234.02 73.9467 232.434 74.24 230.674 74.24ZM245.726 74V52.8H249.406V58.56L249.046 57.12C249.633 55.6533 250.619 54.5333 252.006 53.76C253.393 52.9867 255.099 52.6 257.126 52.6V56.32C256.966 56.2933 256.806 56.28 256.646 56.28C256.513 56.28 256.379 56.28 256.246 56.28C254.193 56.28 252.566 56.8933 251.366 58.12C250.166 59.3467 249.566 61.12 249.566 63.44V74H245.726ZM273.434 74V46H276.714L289.274 67.16H287.514L299.914 46H303.194L303.234 74H299.394L299.354 52.04H300.274L289.234 70.6H287.394L276.274 52.04H277.274V74H273.434ZM320.518 74.24C318.251 74.24 316.251 73.7733 314.518 72.84C312.811 71.9067 311.478 70.6267 310.518 69C309.584 67.3733 309.118 65.5067 309.118 63.4C309.118 61.2933 309.571 59.4267 310.478 57.8C311.411 56.1733 312.678 54.9067 314.278 54C315.904 53.0667 317.731 52.6 319.758 52.6C321.811 52.6 323.624 53.0533 325.198 53.96C326.771 54.8667 327.998 56.1467 328.878 57.8C329.784 59.4267 330.238 61.3333 330.238 63.52C330.238 63.68 330.224 63.8667 330.198 64.08C330.198 64.2933 330.184 64.4933 330.158 64.68H312.118V61.92H328.158L326.598 62.88C326.624 61.52 326.344 60.3067 325.758 59.24C325.171 58.1733 324.358 57.3467 323.318 56.76C322.304 56.1467 321.118 55.84 319.758 55.84C318.424 55.84 317.238 56.1467 316.198 56.76C315.158 57.3467 314.344 58.1867 313.758 59.28C313.171 60.3467 312.878 61.5733 312.878 62.96V63.6C312.878 65.0133 313.198 66.28 313.838 67.4C314.504 68.4933 315.424 69.3467 316.598 69.96C317.771 70.5733 319.118 70.88 320.638 70.88C321.891 70.88 323.024 70.6667 324.038 70.24C325.078 69.8133 325.984 69.1733 326.758 68.32L328.878 70.8C327.918 71.92 326.718 72.7733 325.278 73.36C323.864 73.9467 322.278 74.24 320.518 74.24ZM341.65 74.24C339.89 74.24 338.21 74 336.61 73.52C335.036 73.04 333.796 72.4533 332.89 71.76L334.49 68.72C335.396 69.3333 336.516 69.8533 337.85 70.28C339.183 70.7067 340.543 70.92 341.93 70.92C343.716 70.92 344.996 70.6667 345.77 70.16C346.57 69.6533 346.97 68.9467 346.97 68.04C346.97 67.3733 346.73 66.8533 346.25 66.48C345.77 66.1067 345.13 65.8267 344.33 65.64C343.556 65.4533 342.69 65.2933 341.73 65.16C340.77 65 339.81 64.8133 338.85 64.6C337.89 64.36 337.01 64.04 336.21 63.64C335.41 63.2133 334.77 62.64 334.29 61.92C333.81 61.1733 333.57 60.1867 333.57 58.96C333.57 57.68 333.93 56.56 334.65 55.6C335.37 54.64 336.383 53.9067 337.69 53.4C339.023 52.8667 340.596 52.6 342.41 52.6C343.796 52.6 345.196 52.7733 346.61 53.12C348.05 53.44 349.223 53.9067 350.13 54.52L348.49 57.56C347.53 56.92 346.53 56.48 345.49 56.24C344.45 56 343.41 55.88 342.37 55.88C340.69 55.88 339.436 56.16 338.61 56.72C337.783 57.2533 337.37 57.9467 337.37 58.8C337.37 59.52 337.61 60.08 338.09 60.48C338.596 60.8533 339.236 61.1467 340.01 61.36C340.81 61.5733 341.69 61.76 342.65 61.92C343.61 62.0533 344.57 62.24 345.53 62.48C346.49 62.6933 347.356 63 348.13 63.4C348.93 63.8 349.57 64.36 350.05 65.08C350.556 65.8 350.81 66.76 350.81 67.96C350.81 69.24 350.436 70.3467 349.69 71.28C348.943 72.2133 347.89 72.9467 346.53 73.48C345.17 73.9867 343.543 74.24 341.65 74.24ZM361.689 74.24C359.929 74.24 358.249 74 356.649 73.52C355.075 73.04 353.835 72.4533 352.929 71.76L354.529 68.72C355.435 69.3333 356.555 69.8533 357.889 70.28C359.222 70.7067 360.582 70.92 361.969 70.92C363.755 70.92 365.035 70.6667 365.809 70.16C366.609 69.6533 367.009 68.9467 367.009 68.04C367.009 67.3733 366.769 66.8533 366.289 66.48C365.809 66.1067 365.169 65.8267 364.369 65.64C363.595 65.4533 362.729 65.2933 361.769 65.16C360.809 65 359.849 64.8133 358.889 64.6C357.929 64.36 357.049 64.04 356.249 63.64C355.449 63.2133 354.809 62.64 354.329 61.92C353.849 61.1733 353.609 60.1867 353.609 58.96C353.609 57.68 353.969 56.56 354.689 55.6C355.409 54.64 356.422 53.9067 357.729 53.4C359.062 52.8667 360.635 52.6 362.449 52.6C363.835 52.6 365.235 52.7733 366.649 53.12C368.089 53.44 369.262 53.9067 370.169 54.52L368.529 57.56C367.569 56.92 366.569 56.48 365.529 56.24C364.489 56 363.449 55.88 362.409 55.88C360.729 55.88 359.475 56.16 358.649 56.72C357.822 57.2533 357.409 57.9467 357.409 58.8C357.409 59.52 357.649 60.08 358.129 60.48C358.635 60.8533 359.275 61.1467 360.049 61.36C360.849 61.5733 361.729 61.76 362.689 61.92C363.649 62.0533 364.609 62.24 365.569 62.48C366.529 62.6933 367.395 63 368.169 63.4C368.969 63.8 369.609 64.36 370.089 65.08C370.595 65.8 370.849 66.76 370.849 67.96C370.849 69.24 370.475 70.3467 369.729 71.28C368.982 72.2133 367.929 72.9467 366.569 73.48C365.209 73.9867 363.582 74.24 361.689 74.24ZM385.088 74.24C382.821 74.24 380.821 73.7733 379.088 72.84C377.381 71.9067 376.048 70.6267 375.088 69C374.154 67.3733 373.688 65.5067 373.688 63.4C373.688 61.2933 374.141 59.4267 375.048 57.8C375.981 56.1733 377.248 54.9067 378.848 54C380.474 53.0667 382.301 52.6 384.328 52.6C386.381 52.6 388.194 53.0533 389.768 53.96C391.341 54.8667 392.568 56.1467 393.448 57.8C394.354 59.4267 394.808 61.3333 394.808 63.52C394.808 63.68 394.794 63.8667 394.768 64.08C394.768 64.2933 394.754 64.4933 394.728 64.68H376.688V61.92H392.728L391.168 62.88C391.194 61.52 390.914 60.3067 390.328 59.24C389.741 58.1733 388.928 57.3467 387.888 56.76C386.874 56.1467 385.688 55.84 384.328 55.84C382.994 55.84 381.808 56.1467 380.768 56.76C379.728 57.3467 378.914 58.1867 378.328 59.28C377.741 60.3467 377.448 61.5733 377.448 62.96V63.6C377.448 65.0133 377.768 66.28 378.408 67.4C379.074 68.4933 379.994 69.3467 381.168 69.96C382.341 70.5733 383.688 70.88 385.208 70.88C386.461 70.88 387.594 70.6667 388.608 70.24C389.648 69.8133 390.554 69.1733 391.328 68.32L393.448 70.8C392.488 71.92 391.288 72.7733 389.848 73.36C388.434 73.9467 386.848 74.24 385.088 74.24ZM411.46 52.6C413.193 52.6 414.713 52.9333 416.02 53.6C417.353 54.2667 418.393 55.28 419.14 56.64C419.887 58 420.26 59.72 420.26 61.8V74H416.42V62.24C416.42 60.1867 415.913 58.64 414.9 57.6C413.913 56.56 412.513 56.04 410.7 56.04C409.34 56.04 408.153 56.3067 407.14 56.84C406.127 57.3733 405.34 58.16 404.78 59.2C404.247 60.24 403.98 61.5333 403.98 63.08V74H400.14V52.8H403.82V58.52L403.22 57C403.913 55.6133 404.98 54.5333 406.42 53.76C407.86 52.9867 409.54 52.6 411.46 52.6ZM436.647 82C434.7 82 432.807 81.72 430.967 81.16C429.153 80.6267 427.673 79.8533 426.527 78.84L428.367 75.88C429.353 76.7333 430.567 77.4 432.007 77.88C433.447 78.3867 434.953 78.64 436.527 78.64C439.033 78.64 440.873 78.0533 442.047 76.88C443.22 75.7067 443.807 73.92 443.807 71.52V67.04L444.207 62.84L444.007 58.6V52.8H447.647V71.12C447.647 74.8533 446.713 77.6 444.847 79.36C442.98 81.12 440.247 82 436.647 82ZM436.167 73.12C434.113 73.12 432.273 72.6933 430.647 71.84C429.047 70.96 427.767 69.7467 426.807 68.2C425.873 66.6533 425.407 64.8667 425.407 62.84C425.407 60.7867 425.873 59 426.807 57.48C427.767 55.9333 429.047 54.7333 430.647 53.88C432.273 53.0267 434.113 52.6 436.167 52.6C437.98 52.6 439.633 52.9733 441.127 53.72C442.62 54.44 443.807 55.56 444.687 57.08C445.593 58.6 446.047 60.52 446.047 62.84C446.047 65.1333 445.593 67.04 444.687 68.56C443.807 70.08 442.62 71.2267 441.127 72C439.633 72.7467 437.98 73.12 436.167 73.12ZM436.607 69.76C438.02 69.76 439.273 69.4667 440.367 68.88C441.46 68.2933 442.313 67.48 442.927 66.44C443.567 65.4 443.887 64.2 443.887 62.84C443.887 61.48 443.567 60.28 442.927 59.24C442.313 58.2 441.46 57.4 440.367 56.84C439.273 56.2533 438.02 55.96 436.607 55.96C435.193 55.96 433.927 56.2533 432.807 56.84C431.713 57.4 430.847 58.2 430.207 59.24C429.593 60.28 429.287 61.48 429.287 62.84C429.287 64.2 429.593 65.4 430.207 66.44C430.847 67.48 431.713 68.2933 432.807 68.88C433.927 69.4667 435.193 69.76 436.607 69.76ZM464.424 74.24C462.157 74.24 460.157 73.7733 458.424 72.84C456.717 71.9067 455.384 70.6267 454.424 69C453.49 67.3733 453.024 65.5067 453.024 63.4C453.024 61.2933 453.477 59.4267 454.384 57.8C455.317 56.1733 456.584 54.9067 458.184 54C459.81 53.0667 461.637 52.6 463.664 52.6C465.717 52.6 467.53 53.0533 469.104 53.96C470.677 54.8667 471.904 56.1467 472.784 57.8C473.69 59.4267 474.144 61.3333 474.144 63.52C474.144 63.68 474.13 63.8667 474.104 64.08C474.104 64.2933 474.09 64.4933 474.064 64.68H456.024V61.92H472.064L470.504 62.88C470.53 61.52 470.25 60.3067 469.664 59.24C469.077 58.1733 468.264 57.3467 467.224 56.76C466.21 56.1467 465.024 55.84 463.664 55.84C462.33 55.84 461.144 56.1467 460.104 56.76C459.064 57.3467 458.25 58.1867 457.664 59.28C457.077 60.3467 456.784 61.5733 456.784 62.96V63.6C456.784 65.0133 457.104 66.28 457.744 67.4C458.41 68.4933 459.33 69.3467 460.504 69.96C461.677 70.5733 463.024 70.88 464.544 70.88C465.797 70.88 466.93 70.6667 467.944 70.24C468.984 69.8133 469.89 69.1733 470.664 68.32L472.784 70.8C471.824 71.92 470.624 72.7733 469.184 73.36C467.77 73.9467 466.184 74.24 464.424 74.24ZM479.476 74V52.8H483.156V58.56L482.796 57.12C483.383 55.6533 484.369 54.5333 485.756 53.76C487.143 52.9867 488.849 52.6 490.876 52.6V56.32C490.716 56.2933 490.556 56.28 490.396 56.28C490.263 56.28 490.129 56.28 489.996 56.28C487.943 56.28 486.316 56.8933 485.116 58.12C483.916 59.3467 483.316 61.12 483.316 63.44V74H479.476Z" fill="#9068FE"/>
<defs>
<clipPath id="clip0_1_10">
<rect width="73.6301" height="74.375" fill="white" transform="translate(22.089 22.3125)"/>
</clipPath>
</defs>
</svg>
