<svg xmlns="http://www.w3.org/2000/svg" xmlns:xlink="http://www.w3.org/1999/xlink" version="1.1" width="612.675" height="612.675" style="" xml:space="preserve"><rect id="backgroundrect" width="100%" height="100%" x="0" y="0" fill="none" stroke="none"/>
















<g class="currentLayer" style=""><title>Layer 1</title><g id="svg_1" class="selected" fill="#757575" fill-opacity="1">
	<g id="_x34__17_" fill="#757575" fill-opacity="1">
		<g id="svg_2" fill="#757575" fill-opacity="1">
			<path d="M581.209,223.007L269.839,530.92c-51.592,51.024-135.247,51.024-186.839,0c-51.592-51.023-51.592-133.737,0-184.761     L363.248,69.04c34.402-34.009,90.15-34.009,124.553,0c34.402,34.008,34.402,89.166,0,123.174l-280.249,277.12     c-17.19,17.016-45.075,17.016-62.287,0c-17.19-16.993-17.19-44.571,0-61.587L394.37,161.42l-31.144-30.793L114.144,376.975     c-34.402,34.009-34.402,89.166,0,123.174c34.402,34.009,90.15,34.009,124.552,0l280.249-277.12     c51.592-51.023,51.592-133.737,0-184.761c-51.593-51.023-135.247-51.023-186.839,0L36.285,330.784l1.072,1.071     c-53.736,68.323-49.012,167.091,14.5,229.88c63.512,62.79,163.35,67.492,232.46,14.325l1.072,1.072l326.942-323.31     L581.209,223.007z" id="svg_3" fill="#757575" fill-opacity="1"/>
		</g>
	</g>
</g><g id="svg_4">
</g><g id="svg_5">
</g><g id="svg_6">
</g><g id="svg_7">
</g><g id="svg_8">
</g><g id="svg_9">
</g><g id="svg_10">
</g><g id="svg_11">
</g><g id="svg_12">
</g><g id="svg_13">
</g><g id="svg_14">
</g><g id="svg_15">
</g><g id="svg_16">
</g><g id="svg_17">
</g><g id="svg_18">
</g></g></svg>